<?xml version="1.0" encoding="UTF-8"?>
<svg version="1.1" xmlns="http://www.w3.org/2000/svg" width="256" height="256">
    <path
        d="M0 0 C1.58238213 -0.01925285 1.58238213 -0.01925285 3.19673157 -0.03889465 C4.32701279 -0.04628159 5.45729401 -0.05366852 6.62182617 -0.0612793 C8.38063362 -0.07338692 8.38063362 -0.07338692 10.17497253 -0.08573914 C12.6537428 -0.09955398 15.13253188 -0.11028772 17.61132812 -0.11816406 C20.14165839 -0.12969583 22.67196411 -0.15016624 25.20214844 -0.1796875 C28.86304213 -0.22239753 32.52321415 -0.23853761 36.18432617 -0.2487793 C37.3085347 -0.26628738 38.43274323 -0.28379547 39.59101868 -0.30183411 C47.83980822 -0.27916134 53.2205073 1.17096851 59.41479492 6.67700195 C64.87243779 12.91430809 67.13432843 18.1254864 66.90698242 26.5246582 C66.01361843 34.30150627 62.88692276 39.66472563 56.99291992 44.7043457 C50.21831574 48.87759044 44.20360335 49.60112491 36.43432617 49.5480957 C34.46882971 49.56548618 32.50333496 49.58307047 30.5378418 49.60083008 C27.48173726 49.61085651 24.42574914 49.6145081 21.36962891 49.61279297 C-0.31141163 49.3071797 -0.31141163 49.3071797 -18.53051758 59.91918945 C-25.68306277 68.56808301 -28.05539629 79.43770488 -28.93383789 90.39233398 C-29.02143372 91.47499542 -29.10902954 92.55765686 -29.19927979 93.67312622 C-29.26476013 94.49940521 -29.33024048 95.3256842 -29.39770508 96.17700195 C-28.43828003 96.16811951 -27.47885498 96.15923706 -26.49035645 96.15008545 C-17.42777061 96.06883204 -8.36525914 96.00895636 0.69760895 95.96975327 C5.3564223 95.94892059 10.01494048 95.92068234 14.67358398 95.87524414 C19.17344546 95.83163165 23.67302385 95.80783238 28.17308044 95.79749298 C29.88582309 95.79012916 31.59855107 95.7757494 33.31117249 95.75408173 C51.37967488 95.53467303 51.37967488 95.53467303 59.41479492 102.67700195 C64.87243779 108.91430809 67.13432843 114.1254864 66.90698242 122.5246582 C66.01361843 130.30150627 62.88692276 135.66472563 56.99291992 140.7043457 C51.10251476 144.33291228 45.56613014 145.62590557 38.7175293 145.51757812 C37.97508972 145.5180162 37.23265015 145.51845428 36.4677124 145.51890564 C34.04354413 145.51683601 31.62009052 145.49359306 29.19604492 145.4699707 C27.50354388 145.46436822 25.81103794 145.46010121 24.11853027 145.45710754 C19.68630293 145.44571007 15.25437537 145.41628742 10.82226562 145.38299561 C6.29064996 145.3521842 1.75898537 145.33857865 -2.77270508 145.32348633 C-11.64783604 145.2914123 -20.52274553 145.24027837 -29.39770508 145.17700195 C-29.38882263 146.10692963 -29.37994019 147.0368573 -29.37078857 147.9949646 C-29.28942741 156.79203438 -29.22960825 165.58902703 -29.19045639 174.38638878 C-29.16965073 178.90838778 -29.14146278 183.43008115 -29.09594727 187.9519043 C-29.05223719 192.32209876 -29.02851526 196.69200068 -29.01819611 201.062397 C-29.0108496 202.72324854 -28.99650435 204.38408548 -28.97478485 206.04481125 C-28.84899818 216.06850619 -28.8414431 225.2902349 -35.25708008 233.5793457 C-42.05681627 239.1006191 -47.99085693 241.82923374 -56.87426758 241.52856445 C-63.71093864 240.57608706 -68.99189883 237.46396945 -73.39770508 232.17700195 C-77.10840613 227.02325049 -78.51939187 223.66621603 -78.5448761 217.34994507 C-78.5520314 216.13350815 -78.55918671 214.91707123 -78.56655884 213.66377258 C-78.56939923 212.31320216 -78.57211094 210.96263146 -78.57470703 209.61206055 C-78.58097337 208.19094171 -78.58762032 206.76982452 -78.59461975 205.34870911 C-78.61566681 200.67429749 -78.62603228 195.99988558 -78.63598633 191.32543945 C-78.64003559 189.71148283 -78.64415257 188.09752638 -78.64833641 186.4835701 C-78.66740046 178.88937711 -78.6816211 171.29519382 -78.68994838 163.7009815 C-78.69968377 154.96846813 -78.72590057 146.23621074 -78.76644927 137.5037874 C-78.79677913 130.73663619 -78.81143366 123.96955754 -78.81472939 117.20233977 C-78.81706349 113.17028355 -78.82580483 109.13850034 -78.85119057 105.10651779 C-79.03852258 73.70559075 -75.36426855 46.60061146 -52.39770508 23.17700195 C-51.67196289 22.41516602 -50.9462207 21.65333008 -50.19848633 20.8684082 C-39.19349143 10.08762373 -25.28865053 4.25788722 -10.39770508 1.17700195 C-9.61861282 1.00211746 -8.83952057 0.82723297 -8.03681946 0.64704895 C-5.30851493 0.16111649 -2.7698392 0.02950732 0 0 Z "
        transform="translate(86.397705078125,7.822998046875)" />
    <path
        d="M0 0 C28.36096008 -1.0382779 52.89464742 4.97197888 74.8125 23.75 C90.0289632 38.22801719 99.08176145 59.06595765 100.09783173 80.0172863 C100.14238044 82.12847471 100.15789917 84.23771175 100.16113281 86.34936523 C100.16609772 87.1425264 100.17106262 87.93568756 100.17617798 88.75288391 C100.19067761 91.35479634 100.19758336 93.95664769 100.203125 96.55859375 C100.20736607 97.9058639 100.20736607 97.9058639 100.21169281 99.28035164 C100.22664075 104.03968723 100.23589625 108.79899289 100.24023438 113.55834961 C100.24569286 118.42620491 100.26967788 123.29377683 100.29820633 128.16154385 C100.31701854 131.94613897 100.32204821 135.73066858 100.32357025 139.51530647 C100.32655884 141.3071045 100.33445536 143.09890246 100.34775543 144.89065361 C100.53671022 172.31757044 94.7396658 195.95028709 75 216 C58.04958965 232.98535964 33.17750046 241.03217822 9.53344727 241.16113281 C8.83472504 241.16609772 8.13600281 241.17106262 7.41610718 241.17617798 C5.1328631 241.19063673 2.84968835 241.19757238 0.56640625 241.203125 C-0.61380443 241.20736607 -0.61380443 241.20736607 -1.81785774 241.21169281 C-5.9779404 241.22661547 -10.13798897 241.23588987 -14.2980957 241.24023438 C-18.57262317 241.2457234 -22.84683285 241.26978031 -27.12126064 241.29820633 C-30.43029169 241.3169077 -33.73924708 241.32204218 -37.04832649 241.32357025 C-38.62345183 241.32657801 -40.19857643 241.33454234 -41.77364922 241.34775543 C-53.04559614 241.43560486 -62.67903003 241.19440125 -71.26953125 232.9296875 C-76.93924069 226.60725756 -77.66287789 220.76926823 -77.375 212.33984375 C-76.50062423 204.55243455 -72.9266626 200.26775701 -66.94921875 195.40625 C-60.92094075 191.05719172 -54.03296831 190.87830843 -46.80810547 190.8581543 C-46.11449417 190.85467987 -45.42088287 190.85120544 -44.70625305 190.84762573 C-43.20854354 190.84030893 -41.71082347 190.83494199 -40.21310043 190.83133507 C-37.83168751 190.82411106 -35.45047375 190.80839929 -33.06912231 190.78999329 C-26.30099282 190.73781408 -19.5329746 190.68962679 -12.76464844 190.67407227 C-8.61425694 190.66391275 -4.46437226 190.63439027 -0.31418228 190.59275246 C1.25561541 190.58055106 2.82548502 190.57530104 4.39532852 190.57755089 C17.80348561 190.59203414 30.29794631 188.71042432 40.6796875 179.51171875 C51.04513293 168.70793359 50.16105044 153.24443196 50.16796875 139.328125 C50.17118892 137.79888885 50.17455354 136.26965301 50.17805481 134.74041748 C50.18402054 131.54308357 50.18589739 128.34577658 50.18530273 125.1484375 C50.18520135 121.08277906 50.19884043 117.01729619 50.21607494 112.95167923 C50.22727997 109.79436474 50.22921934 106.63709154 50.22869301 103.47975922 C50.22986086 101.9824844 50.23421415 100.48520808 50.24202538 98.98795319 C50.30552971 85.55708805 50.29949836 71.85626341 41.3515625 61 C32.47439962 52.31011903 20.11731401 50.04749049 8.1875 49.4375 C7.39923828 49.39431641 6.61097656 49.35113281 5.79882812 49.30664062 C3.86605785 49.20121679 1.93304974 49.10016906 0 49 C1.27705059 46.26934806 2.49640952 44.38903444 4.4375 42 C9.21647671 35.37750112 10.87414206 26.61765741 9.71484375 18.59375 C8.00916238 12.40482964 5.43521759 5.62347839 0 2 C0 1.34 0 0.68 0 0 Z "
        transform="translate(149,8)" />
</svg>
