<svg xmlns="http://www.w3.org/2000/svg" xmlns:xlink="http://www.w3.org/1999/xlink" viewBox="0,0,256,256" width="16px" height="16px"><g fill="#ff0000" fill-rule="nonzero" stroke="none" stroke-width="1" stroke-linecap="butt" stroke-linejoin="miter" stroke-miterlimit="10" stroke-dasharray="" stroke-dashoffset="0" font-family="none" font-weight="none" font-size="none" text-anchor="none" style="mix-blend-mode: normal"><g transform="scale(10.66667,10.66667)"><path d="M11,0.99805c-2.60923,0 -4.70665,1.48021 -5.89453,3.37305c-0.53529,0.23591 -0.97437,0.57333 -1.29492,0.98242c-0.64436,0.82234 -0.81055,1.79807 -0.81055,2.64453c0,0.7909 0.39672,1.48205 0.90234,1.97852c0.03035,0.0298 0.0645,0.05514 0.0957,0.08398l0.00195,3.93945c0.00043,1.16247 0.40633,2.183 1,3.2207v3.41016c0,0.91799 0.54782,1.73504 1.17969,2.05469c0.63187,0.31965 1.22497,0.31306 1.64063,0.3125c1.15513,-0.00066 2.1547,-0.55976 2.63281,-1.37695c0.296,-0.50591 0.2748,-1.0722 0.33789,-1.62305h0.20898v0.63281c0,0.91799 0.54782,1.73504 1.17969,2.05469c0.63187,0.31965 1.22497,0.31306 1.64062,0.3125c1.15513,-0.00066 2.1547,-0.55976 2.63281,-1.37695c0.30074,-0.51403 0.43061,-1.06463 0.49219,-1.625c0.01821,0.00115 0.03644,0.0018 0.05469,0.00195h2c0.44098,0 0.77204,-0.24777 0.94922,-0.44727c0.17718,-0.1995 0.27343,-0.38997 0.35938,-0.58984c0.17188,-0.39975 0.28417,-0.85275 0.38281,-1.39453c0.19728,-1.08356 0.31055,-2.50106 0.31055,-4.06836c0,-1.5673 -0.11326,-2.98284 -0.31055,-4.06641c-0.09864,-0.54178 -0.21093,-0.99478 -0.38281,-1.39453c-0.08594,-0.19987 -0.18219,-0.39035 -0.35937,-0.58984c-0.17718,-0.1995 -0.50824,-0.44922 -0.94922,-0.44922h-2c0,-1.40989 -0.47823,-2.88061 -1.48437,-4.03906c-1.00614,-1.15845 -2.5729,-1.96094 -4.51562,-1.96094zM11,2.99805c1.41828,0 2.35225,0.52089 3.00586,1.27344c0.65361,0.75255 0.99414,1.78045 0.99414,2.72656v12c0,0.74813 -0.11483,1.3422 -0.27344,1.61328c-0.1586,0.27108 -0.25019,0.38672 -0.9082,0.38672c-0.32834,0.00044 -0.6447,-0.0513 -0.73633,-0.09766c-0.09163,-0.04635 -0.08203,0.08548 -0.08203,-0.26953v-1.63281c-0.00006,-0.55226 -0.44774,-0.99994 -1,-1h-2c-0.55226,0.00006 -0.99994,0.44774 -1,1c0,0.74813 -0.11483,1.3422 -0.27344,1.61328c-0.1586,0.27108 -0.25019,0.38672 -0.9082,0.38672c-0.32834,0.00044 -0.6447,-0.0513 -0.73633,-0.09766c-0.09163,-0.04635 -0.08203,0.08548 -0.08203,-0.26953v-3.63281c-0.00006,-0.18248 -0.05004,-0.36147 -0.14453,-0.51758c-0.60768,-0.99974 -0.85547,-1.65038 -0.85547,-2.48242l-0.00195,-2.76953c1.29259,0.50552 2.74551,0.76953 4.00195,0.76953c1.43433,0 2.60469,-0.69333 3.2207,-1.68164c0.61602,-0.98831 0.7793,-2.15942 0.7793,-3.31836c0,-0.80886 -0.5111,-1.49638 -1.08008,-1.88281c-0.56898,-0.38643 -1.22177,-0.59839 -1.91016,-0.75391c-0.99718,-0.22528 -2.02653,-0.29589 -2.96289,-0.32812c0.80614,-0.63044 1.80707,-1.03516 2.95313,-1.03516zM7,5.99805c1.01632,0 2.47384,0.06674 3.57031,0.31445c0.54824,0.12386 0.99976,0.303 1.22656,0.45703c0.2268,0.15404 0.20313,0.15488 0.20313,0.22852c0,0.94506 -0.17383,1.77603 -0.47656,2.26172c-0.30274,0.48569 -0.63277,0.73828 -1.52344,0.73828c-1.03525,0 -2.45423,-0.2652 -3.5,-0.71289c-0.52288,-0.22384 -0.95023,-0.49377 -1.19727,-0.73633c-0.24703,-0.24256 -0.30273,-0.40018 -0.30273,-0.55078c0,-0.56554 0.13037,-1.08745 0.38477,-1.41211c0.12475,-0.15921 0.28242,-0.30234 0.52344,-0.4082c0.09527,-0.01394 0.18802,-0.04157 0.27539,-0.08203c0.21742,-0.05677 0.46948,-0.09766 0.81641,-0.09766zM17,8.99805h1.51563c0.06441,0.18387 0.14111,0.41824 0.20898,0.79102c0.16522,0.90744 0.27734,2.24028 0.27734,3.70898c0,1.4687 -0.11213,2.8035 -0.27734,3.71094c-0.06771,0.37192 -0.14464,0.60506 -0.20898,0.78906h-1.51562z"></path></g></g></svg>